<?xml version="1.0" standalone="no"?>
<!DOCTYPE svg PUBLIC "-//W3C//DTD SVG 20010904//EN"
 "http://www.w3.org/TR/2001/REC-SVG-20010904/DTD/svg10.dtd">
<svg version="1.0" xmlns="http://www.w3.org/2000/svg"
 width="560.000000pt" height="560.000000pt" viewBox="0 0 560.000000 560.000000"
 preserveAspectRatio="xMidYMid meet">
<metadata>
Created by potrace 1.11, written by Peter Selinger 2001-2013
</metadata>
<g transform="translate(0.000000,560.000000) scale(0.100000,-0.100000)"
fill="#000000" stroke="none">
<path d="M2571 4839 c-1072 -121 -1880 -1012 -1881 -2074 0 -861 547 -1649
1355 -1950 116 -43 165 -43 202 0 22 25 23 33 23 242 l0 215 -27 -6 c-16 -4
-86 -9 -158 -12 -152 -7 -232 7 -328 59 -94 50 -152 114 -207 231 -54 115
-105 188 -170 240 -107 86 -130 109 -130 127 0 49 119 50 221 2 73 -34 145
-101 196 -182 93 -148 216 -221 373 -221 108 0 240 39 240 72 0 38 43 145 81
200 45 66 58 56 -101 83 -197 34 -387 115 -514 220 -26 22 -71 72 -101 110
-131 172 -189 376 -189 660 1 122 5 165 22 230 27 100 80 207 140 288 l47 62
-17 65 c-24 92 -23 253 2 356 29 123 36 134 82 134 119 0 356 -94 511 -202 23
-16 33 -18 60 -9 147 47 478 72 682 52 111 -12 278 -41 316 -56 10 -4 49 14
100 45 166 101 308 157 426 167 l71 6 28 -84 c37 -114 45 -299 17 -405 l-19
-71 49 -63 c132 -176 184 -387 158 -647 -41 -402 -212 -654 -533 -782 -89 -36
-257 -78 -345 -87 -35 -4 -63 -10 -63 -15 0 -4 11 -20 24 -36 39 -47 74 -125
90 -206 13 -61 16 -145 16 -416 0 -338 0 -340 23 -366 37 -43 86 -43 202 0 55
21 149 62 209 93 846 430 1293 1360 1100 2283 -107 510 -415 975 -849 1280
-246 173 -546 295 -860 349 -139 24 -441 34 -574 19z"/>
<path d="M1435 1880 c-9 -14 1 -27 25 -33 25 -6 36 9 20 28 -14 17 -36 19 -45
5z"/>
<path d="M1525 1810 c-12 -20 6 -50 31 -50 29 0 31 20 6 43 -21 20 -28 21 -37
7z"/>
<path d="M1603 1694 c-9 -24 10 -49 38 -49 18 0 23 5 21 20 -8 42 -46 61 -59
29z"/>
<path d="M1700 1567 c0 -29 18 -47 46 -47 28 0 36 22 18 49 -21 30 -64 28 -64
-2z"/>
<path d="M1844 1485 c-10 -24 16 -46 49 -43 36 4 44 19 22 42 -21 20 -64 21
-71 1z"/>
<path d="M2183 1484 c-23 -10 -15 -43 11 -50 31 -7 68 12 64 34 -3 17 -50 27
-75 16z"/>
<path d="M2013 1454 c-9 -24 21 -48 52 -40 30 8 44 34 24 47 -23 14 -69 10
-76 -7z"/>
</g>
</svg>
