<?xml version="1.0" standalone="no"?>
<!DOCTYPE svg PUBLIC "-//W3C//DTD SVG 20010904//EN"
 "http://www.w3.org/TR/2001/REC-SVG-20010904/DTD/svg10.dtd">
<svg version="1.0" xmlns="http://www.w3.org/2000/svg"
 width="560.000000pt" height="560.000000pt" viewBox="0 0 560.000000 560.000000"
 preserveAspectRatio="xMidYMid meet">
<metadata>
Created by potrace 1.11, written by Peter Selinger 2001-2013
</metadata>
<g transform="translate(0.000000,560.000000) scale(0.100000,-0.100000)"
fill="#000000" stroke="none">
<path d="M2480 4842 c0 -6 -9 -9 -19 -7 -13 2 -18 -1 -15 -9 3 -7 -4 -12 -16
-12 -11 0 -20 4 -20 8 0 5 -8 4 -19 -1 -10 -6 -21 -7 -25 -4 -3 3 -6 1 -6 -5
0 -7 -5 -12 -11 -12 -5 0 -7 6 -3 13 4 6 -2 3 -15 -7 -12 -11 -35 -20 -52 -21
-17 -1 -35 -8 -40 -16 -7 -12 -9 -12 -9 1 0 9 -3 11 -8 5 -4 -5 -11 -10 -17
-11 -35 -2 -95 -18 -95 -24 0 -4 -7 -11 -16 -14 -8 -3 -12 -2 -9 4 3 6 2 10
-2 10 -5 0 -14 -9 -21 -21 -8 -12 -19 -18 -28 -15 -20 8 -45 -4 -37 -18 4 -6
1 -6 -9 2 -13 10 -17 10 -21 -2 -4 -9 -15 -13 -26 -11 -13 2 -18 -1 -15 -9 3
-8 -4 -16 -15 -19 -12 -3 -19 -1 -15 4 3 5 0 9 -5 9 -6 0 -11 -10 -11 -22 0
-19 -2 -20 -10 -8 -6 10 -10 11 -10 3 0 -7 -7 -13 -16 -13 -9 0 -12 -5 -8 -12
6 -10 4 -10 -8 0 -13 10 -17 10 -22 -4 -4 -9 -9 -14 -12 -11 -4 3 -15 -4 -25
-16 -10 -12 -18 -16 -19 -9 0 6 5 12 10 12 6 0 10 6 10 13 -1 6 -10 1 -20 -12
-11 -13 -20 -20 -20 -17 0 4 -9 2 -20 -4 -11 -6 -19 -14 -19 -18 3 -19 -2 -23
-16 -12 -12 10 -15 10 -15 -4 0 -9 -7 -16 -16 -16 -8 0 -13 -4 -9 -9 3 -5 0
-13 -6 -17 -7 -4 -9 -3 -5 4 3 6 2 13 -4 17 -5 3 -10 0 -10 -7 0 -18 -40 -53
-40 -35 -1 7 -6 5 -14 -5 -7 -10 -18 -18 -25 -18 -6 0 -11 -5 -11 -11 0 -5 5
-7 12 -3 7 4 8 3 4 -5 -6 -9 -11 -9 -21 -1 -10 8 -15 8 -21 -1 -5 -8 -3 -9 6
-4 9 6 11 4 6 -4 -5 -7 -15 -10 -23 -7 -11 4 -13 2 -9 -9 3 -9 0 -15 -10 -15
-20 0 -42 -22 -37 -37 3 -7 -5 -10 -21 -9 -23 3 -24 1 -14 -18 10 -18 9 -19
-4 -8 -13 10 -16 9 -21 -9 -3 -11 -9 -19 -14 -17 -4 2 -19 -7 -33 -20 -14 -14
-19 -22 -12 -18 6 4 12 3 12 -2 0 -6 -11 -13 -25 -16 -14 -4 -25 -11 -25 -17
0 -6 5 -7 12 -3 7 5 8 3 4 -5 -5 -7 -15 -10 -23 -7 -10 4 -13 2 -10 -8 6 -16
-16 -40 -27 -29 -4 4 -9 -3 -13 -15 -3 -12 -10 -22 -15 -22 -5 0 -6 5 -3 10 3
6 4 10 1 10 -3 0 -10 -10 -17 -21 -9 -17 -8 -20 3 -14 7 3 4 -1 -6 -9 -11 -9
-23 -16 -28 -16 -4 0 -8 -5 -8 -11 0 -5 6 -7 13 -3 8 5 8 3 -2 -9 -7 -9 -18
-14 -24 -10 -6 3 -7 1 -3 -6 4 -6 1 -14 -8 -17 -8 -3 -12 -12 -9 -20 3 -8 -1
-14 -10 -14 -9 0 -19 -5 -23 -12 -5 -7 -3 -8 7 -3 12 8 12 6 0 -9 -8 -9 -20
-15 -27 -12 -7 3 -16 0 -20 -6 -4 -6 -3 -8 3 -5 6 4 13 0 17 -8 3 -9 0 -15 -9
-15 -8 0 -15 -9 -15 -20 0 -11 -7 -20 -16 -20 -8 0 -12 -4 -9 -10 8 -13 -19
-52 -30 -42 -5 4 -5 2 -1 -5 3 -6 2 -14 -4 -18 -6 -4 -7 -11 -4 -17 4 -7 2 -8
-4 -4 -8 5 -12 0 -12 -14 0 -11 -7 -23 -15 -26 -8 -4 -12 -10 -9 -15 3 -5 -2
-12 -11 -15 -12 -5 -13 -9 -4 -21 10 -11 9 -13 -2 -11 -8 2 -13 -4 -13 -14 1
-10 -2 -18 -7 -18 -5 0 -9 -7 -9 -16 0 -9 -5 -12 -12 -8 -8 5 -9 2 -5 -9 8
-20 -2 -49 -13 -42 -5 3 -6 -5 -2 -17 3 -13 1 -19 -5 -15 -6 4 -14 0 -17 -9
-9 -24 -7 -31 4 -14 6 9 10 10 10 3 0 -6 -5 -15 -11 -18 -6 -4 -8 -14 -5 -22
4 -10 2 -13 -8 -10 -10 4 -14 0 -11 -13 2 -11 -2 -25 -9 -32 -15 -15 -9 -41 6
-32 7 4 8 2 4 -5 -4 -6 -12 -9 -17 -6 -5 4 -9 -3 -9 -15 0 -14 -4 -19 -12 -14
-10 5 -10 4 -1 -6 9 -10 8 -16 -4 -28 -10 -11 -12 -17 -5 -20 8 -2 7 -11 -3
-26 -8 -12 -12 -26 -9 -29 4 -4 1 -13 -6 -22 -7 -8 -10 -22 -6 -30 3 -9 2 -13
-4 -10 -6 3 -10 -1 -11 -9 -3 -52 -2 -74 4 -90 5 -11 3 -15 -5 -10 -8 5 -9 2
-5 -10 6 -14 3 -17 -9 -12 -13 5 -14 3 -6 -7 6 -7 8 -18 4 -24 -4 -6 -5 -52
-2 -103 3 -51 2 -94 -3 -97 -4 -2 -2 -13 3 -24 6 -10 7 -19 3 -19 -4 0 -6 -43
-3 -96 3 -53 2 -98 -3 -101 -4 -2 -2 -13 3 -24 6 -10 7 -19 2 -19 -14 0 -10
-29 4 -34 8 -3 11 -12 8 -20 -3 -8 -1 -23 4 -32 6 -10 6 -29 2 -46 -5 -16 -5
-30 1 -34 5 -3 7 -10 4 -15 -4 -5 -1 -9 4 -9 6 0 11 -5 11 -11 0 -5 -4 -8 -10
-4 -5 3 -3 -7 5 -22 8 -15 15 -36 15 -46 0 -10 5 -28 11 -39 8 -15 8 -19 0
-14 -13 8 6 -42 22 -59 7 -6 7 -5 2 5 -5 8 -5 12 0 8 5 -5 9 -20 11 -35 1 -16
5 -39 7 -53 2 -14 5 -29 6 -33 0 -5 5 -6 10 -3 5 3 12 -1 15 -10 3 -8 2 -12
-4 -9 -6 3 -10 1 -10 -4 0 -6 5 -11 11 -11 5 0 7 -4 4 -10 -3 -5 -1 -10 5 -10
6 0 9 -4 6 -9 -4 -5 0 -12 6 -14 10 -4 10 -6 -1 -6 -9 -1 -8 -6 6 -18 10 -10
14 -16 8 -13 -6 3 -2 -3 8 -13 12 -11 17 -25 14 -38 -3 -12 -3 -18 0 -15 11
11 32 -15 26 -31 -5 -12 -3 -14 7 -8 8 5 11 4 7 -2 -4 -6 0 -19 8 -29 8 -10
15 -27 15 -37 0 -12 4 -16 13 -11 6 4 9 3 4 -1 -4 -5 1 -17 10 -27 16 -18 16
-19 -3 -13 -18 6 -18 6 1 -6 26 -16 35 -31 28 -43 -4 -5 0 -7 9 -4 11 5 14 0
13 -16 -2 -13 2 -29 7 -37 8 -11 9 -10 4 3 -3 10 -1 20 5 23 5 4 8 3 7 -2 -4
-14 13 -53 23 -53 6 0 8 -4 4 -9 -3 -6 4 -19 16 -30 13 -12 18 -24 13 -32 -5
-9 -2 -10 9 -6 16 6 22 -4 17 -28 -1 -5 1 -7 5 -3 11 11 37 -20 29 -34 -5 -9
-2 -8 9 1 15 12 17 12 12 -2 -4 -8 -1 -18 6 -23 7 -4 10 -3 5 4 -3 6 -2 14 4
17 6 4 10 3 9 -2 -3 -20 2 -34 11 -28 6 4 9 1 8 -7 -2 -7 2 -12 8 -11 7 1 11
-5 10 -15 0 -10 6 -16 16 -16 10 1 16 -1 14 -5 -3 -4 -1 -13 5 -21 7 -12 9
-11 10 5 0 16 3 14 11 -8 5 -15 13 -25 18 -22 4 3 11 -2 14 -11 4 -10 2 -13
-7 -8 -7 4 -8 3 -4 -2 5 -5 19 -9 30 -9 12 0 22 -4 22 -10 2 -24 17 -55 26
-50 5 4 9 1 9 -4 0 -6 8 -11 18 -12 14 0 14 -2 -3 -9 -18 -8 -18 -9 -2 -9 22
-1 49 -26 39 -36 -4 -5 -1 -5 5 -1 8 4 24 -4 39 -19 15 -15 35 -27 45 -28 15
-1 16 -4 6 -16 -10 -12 -9 -13 1 -7 8 5 19 1 28 -10 9 -11 13 -13 9 -4 -4 10
-2 9 8 -3 8 -9 17 -17 22 -17 12 0 55 -37 49 -43 -3 -3 4 -3 17 0 14 4 20 2
16 -4 -4 -6 0 -14 9 -17 10 -4 13 -2 9 7 -4 6 1 3 9 -7 9 -11 19 -17 22 -13 4
3 15 -4 26 -16 11 -12 17 -16 13 -10 -4 9 -1 11 10 7 9 -4 14 -13 11 -20 -3
-8 0 -11 8 -8 8 3 17 0 22 -7 5 -8 3 -10 -6 -4 -8 5 -11 4 -7 -2 4 -6 17 -8
31 -6 13 3 27 0 30 -6 5 -7 1 -8 -11 -4 -10 3 -15 3 -11 -2 4 -4 20 -9 35 -11
16 -1 32 -2 36 -3 5 -1 6 -5 2 -10 -3 -5 0 -13 6 -17 7 -4 9 -3 6 3 -4 6 0 14
9 17 10 4 18 -1 21 -13 3 -12 11 -17 19 -14 8 3 14 0 14 -7 0 -6 5 -8 10 -5 6
4 18 1 27 -7 14 -11 16 -11 9 2 -4 8 1 5 10 -8 17 -23 41 -31 28 -10 -4 7 2 4
14 -6 12 -11 22 -14 22 -9 0 7 12 8 35 3 20 -5 33 -4 29 1 -3 5 2 9 11 9 10 0
13 5 9 12 -5 7 -2 9 9 5 22 -8 40 16 24 32 -9 10 -8 11 8 5 11 -4 17 -4 13 0
-4 5 -3 18 2 31 5 14 5 26 -2 33 -8 8 -8 15 0 24 16 20 16 21 4 45 -8 15 -9
24 -2 28 8 5 8 11 0 20 -8 9 -8 20 -2 32 13 23 13 35 1 50 -7 7 -6 14 1 18 8
5 8 11 0 20 -7 8 -8 20 -4 27 12 19 13 37 3 44 -5 3 -5 13 1 24 11 20 0 32
-34 37 -13 2 -17 -1 -12 -12 3 -9 2 -13 -4 -10 -18 11 -50 14 -50 4 0 -6 -7
-6 -19 1 -11 5 -22 6 -25 2 -3 -5 -30 -5 -60 -2 -31 3 -56 2 -56 -2 0 -5 -8
-4 -19 1 -10 6 -21 8 -24 4 -10 -9 -87 -9 -87 0 0 5 -4 5 -10 2 -5 -3 -10 -2
-10 3 0 6 -9 8 -20 5 -12 -3 -20 0 -20 7 0 8 -9 11 -25 7 -14 -2 -23 -2 -20 1
7 7 -15 32 -29 32 -6 0 -4 -5 4 -10 8 -5 10 -10 4 -10 -6 0 -23 17 -39 38 -15
20 -25 29 -22 20 4 -12 2 -15 -9 -11 -8 3 -13 12 -9 20 3 11 1 13 -10 9 -18
-7 -20 10 -2 18 6 3 -1 3 -18 1 -16 -3 -24 -2 -17 1 20 9 14 24 -15 36 -16 6
-31 11 -34 10 -3 0 -6 6 -6 14 0 10 4 11 11 4 18 -18 27 -11 8 8 -9 11 -20 17
-24 15 -5 -2 -8 3 -8 11 0 8 -7 22 -16 30 -12 12 -12 16 -2 16 10 0 9 3 -2 10
-8 5 -15 15 -16 22 -3 33 -5 38 -19 38 -8 0 -12 6 -9 14 3 8 -4 24 -15 35 -12
12 -18 21 -15 21 4 0 1 6 -5 13 -6 8 -7 18 -3 22 4 5 2 5 -5 1 -14 -8 -45 33
-36 48 4 6 -2 4 -12 -4 -17 -14 -18 -13 -12 2 4 11 2 17 -5 15 -7 -1 -12 3
-13 10 0 7 -6 18 -14 25 -11 11 -13 11 -6 -1 5 -9 3 -12 -6 -9 -8 3 -13 11
-11 17 1 7 -6 11 -15 9 -26 -4 -43 10 -43 35 0 18 -2 19 -10 7 -8 -12 -10 -11
-10 8 0 12 -4 22 -8 22 -5 0 -9 7 -9 15 0 18 38 30 67 22 11 -3 20 0 20 5 0 7
4 7 13 0 8 -7 18 -7 27 -2 10 6 23 4 39 -6 14 -10 20 -11 16 -4 -5 8 -3 11 6
8 8 -3 13 -11 11 -17 -2 -8 8 -11 25 -9 17 2 28 -2 28 -9 0 -7 6 -18 14 -25
10 -10 12 -10 7 0 -11 18 9 15 25 -5 8 -10 9 -14 2 -10 -6 4 -15 2 -19 -5 -4
-7 -4 -10 1 -6 4 4 16 -3 27 -15 11 -12 17 -17 14 -10 -4 6 -2 14 4 18 6 3 10
-4 10 -18 0 -19 5 -24 23 -23 17 1 21 -4 19 -21 -2 -14 4 -26 18 -33 14 -7 19
-17 16 -27 -6 -14 -4 -14 11 -2 11 9 14 10 9 2 -4 -7 -3 -13 3 -13 6 0 8 -7 5
-15 -4 -8 -1 -15 6 -15 7 0 10 -7 6 -15 -4 -10 1 -15 15 -15 13 0 24 -10 31
-31 8 -23 13 -27 19 -17 7 10 9 10 10 -2 1 -8 1 -19 0 -24 -1 -5 6 -3 15 5 15
12 17 12 9 0 -6 -11 -3 -13 13 -9 13 4 26 0 34 -11 12 -15 11 -15 -7 -1 -19
14 -19 14 -6 -2 7 -10 17 -15 22 -13 4 3 13 -3 19 -12 11 -17 11 -16 5 1 -6
19 -5 19 15 1 11 -10 20 -15 20 -11 0 4 9 2 20 -4 14 -8 20 -8 20 0 0 8 6 8
20 0 15 -8 20 -8 20 1 0 9 3 9 14 0 10 -8 16 -9 21 -1 3 6 12 7 18 3 17 -11
29 -11 50 -1 11 6 17 5 17 -2 0 -8 6 -8 20 0 11 6 20 8 20 6 0 -3 12 -1 26 4
15 6 23 6 19 1 -3 -5 -1 -12 5 -16 5 -3 10 3 10 14 0 14 5 19 20 16 13 -2 20
2 20 11 0 8 5 14 11 14 5 0 8 4 4 9 -3 5 -1 12 4 16 6 3 8 12 4 20 -3 9 1 15
8 15 11 0 11 3 -1 10 -12 7 -12 10 -1 10 8 0 11 6 7 16 -3 8 -2 13 3 10 5 -3
12 1 15 10 3 8 2 13 -2 10 -5 -3 -9 1 -9 9 0 8 2 13 5 11 2 -3 10 1 17 7 10 9
10 15 1 26 -8 12 -8 13 2 7 7 -4 12 -2 12 4 0 6 5 8 13 4 7 -5 7 -1 -3 12 -8
10 -10 16 -6 12 5 -4 15 0 23 10 9 10 12 11 7 2 -4 -8 -3 -11 1 -7 22 20 11
43 -17 38 -5 0 -8 3 -8 8 0 5 -7 12 -16 15 -9 4 -13 2 -8 -5 4 -8 1 -8 -12 -1
-11 5 -43 12 -73 15 -30 3 -57 9 -60 14 -3 4 -15 9 -26 11 -23 3 -50 10 -50
12 0 1 -12 3 -27 4 -15 0 -34 10 -43 21 -9 11 -13 13 -9 5 7 -13 5 -13 -9 -2
-9 8 -20 11 -26 8 -5 -3 -11 1 -15 9 -3 8 -11 15 -18 15 -9 0 -8 -3 2 -10 10
-7 11 -10 2 -10 -7 0 -15 7 -18 15 -4 8 -13 15 -21 15 -9 0 -11 5 -7 13 5 8 2
8 -9 -2 -12 -9 -17 -10 -17 -2 0 7 -4 9 -10 6 -5 -3 -10 1 -10 10 0 11 -7 14
-25 11 -14 -3 -23 -1 -20 4 3 5 -4 11 -15 15 -11 4 -18 11 -15 16 4 5 -1 9 -9
9 -9 0 -16 5 -16 11 0 5 -5 7 -12 3 -7 -5 -9 -2 -5 9 4 12 2 14 -11 10 -15 -6
-15 -5 -3 10 12 15 12 17 -4 11 -13 -5 -16 -4 -11 4 5 8 2 10 -9 6 -11 -5 -18
0 -22 15 -3 11 -10 21 -15 21 -5 0 -6 5 -3 10 3 6 -3 10 -14 10 -13 0 -21 6
-21 18 0 9 -9 23 -20 30 -12 7 -18 17 -14 23 3 6 -2 17 -12 24 -14 11 -15 14
-5 15 11 0 10 4 -4 14 -11 8 -16 20 -12 29 3 9 1 19 -5 23 -7 5 -8 2 -3 -7 8
-12 6 -12 -8 0 -20 16 -23 36 -4 25 8 -5 8 -3 -2 9 -7 9 -18 14 -25 10 -6 -4
-6 0 2 9 10 13 10 17 -4 22 -14 5 -14 9 -3 23 12 14 12 16 0 8 -11 -6 -13 -3
-9 13 4 12 3 20 -2 17 -13 -8 -19 22 -7 34 9 9 8 11 -3 6 -10 -3 -16 1 -17 12
-3 42 -8 63 -14 63 -3 0 -5 10 -5 23 1 12 -2 28 -7 35 -5 6 -6 12 -1 12 9 0 9
263 0 287 -3 7 0 13 6 13 9 0 9 3 1 11 -7 7 -8 21 -2 41 4 17 6 35 3 39 -3 5
0 9 5 9 6 0 11 5 11 11 0 5 -6 7 -12 3 -7 -4 -3 3 10 15 23 22 30 37 12 26 -5
-3 -10 -1 -10 4 0 6 8 11 18 12 9 0 12 3 5 6 -8 3 -9 10 -3 21 5 9 11 25 14
35 4 11 11 15 18 11 10 -6 10 -4 0 8 -10 13 -10 17 4 22 9 4 14 13 10 21 -3 9
0 15 10 15 10 0 13 7 10 24 -3 19 -1 23 11 19 11 -4 14 -2 9 5 -4 8 0 12 10
12 16 0 16 1 -2 14 -19 14 -19 14 1 13 11 -1 19 3 18 11 -2 6 1 12 7 12 5 0 7
7 4 15 -5 11 -2 13 12 8 11 -4 15 -3 11 4 -4 6 0 19 9 27 8 9 11 16 6 16 -5 0
-9 7 -10 15 -1 8 -3 22 -4 30 -1 8 -6 15 -11 15 -5 0 -5 5 1 13 6 7 7 18 3 26
-4 7 -5 30 -1 52 4 22 4 42 0 44 -4 3 -4 20 0 39 4 19 5 37 2 40 -7 8 -8 66
-1 66 3 0 5 20 4 44 -1 32 2 43 11 39 9 -3 11 2 7 16 -3 12 1 29 8 38 8 9 9
14 3 10 -6 -3 -11 0 -11 8 0 8 4 12 9 9 4 -3 8 0 8 6 0 6 4 9 9 6 5 -3 11 0
14 8 4 11 14 12 41 6 21 -5 36 -4 36 1 0 6 8 5 19 -1 13 -7 22 -7 26 0 4 7 12
7 25 0 11 -6 25 -9 32 -8 6 2 13 -3 14 -9 1 -7 2 -16 3 -20 0 -4 8 2 16 13 11
13 14 14 13 4 -2 -10 5 -15 24 -15 21 1 25 -2 16 -12 -8 -11 -7 -12 7 -7 14 6
16 4 10 -6 -5 -8 -4 -11 3 -6 6 4 34 -5 62 -19 27 -14 50 -22 50 -18 1 5 10
-3 20 -16 11 -13 20 -18 20 -12 0 8 4 8 14 -1 8 -7 12 -16 9 -20 -2 -4 4 -5
13 -1 13 5 15 3 9 -7 -5 -9 -4 -11 3 -6 12 7 44 -6 43 -17 -2 -17 0 -19 14 -7
12 10 16 9 20 -3 5 -12 14 -13 48 -4 23 5 48 14 55 20 8 6 12 6 12 0 0 -7 14
-6 39 0 22 6 38 14 35 19 -3 4 6 4 20 -2 16 -6 26 -6 26 0 0 5 6 7 14 4 8 -3
24 -1 35 6 15 8 21 8 21 0 0 -7 7 -5 15 4 11 11 22 13 38 7 14 -5 30 -5 40 0
11 7 17 6 17 -1 0 -7 6 -8 18 -2 15 7 37 9 45 2 8 -6 47 -5 47 2 0 5 9 4 19
-2 14 -7 22 -7 26 0 5 8 11 8 19 1 9 -7 16 -7 23 0 8 8 13 8 17 0 5 -8 13 -8
27 -1 13 8 19 7 19 0 0 -8 6 -8 20 0 14 8 20 8 20 0 0 -6 4 -9 9 -5 5 3 13 0
17 -6 4 -8 9 -7 15 2 5 9 9 10 9 2 0 -7 18 -11 50 -10 28 1 50 -2 50 -7 0 -4
11 -6 25 -4 14 3 22 1 18 -5 -3 -6 6 -8 25 -5 17 2 29 1 26 -4 -3 -4 8 -10 23
-14 15 -3 34 -7 41 -10 6 -2 12 1 12 5 0 5 8 7 19 4 10 -2 25 3 34 11 11 12
17 13 20 3 3 -7 6 -4 6 6 1 10 6 15 11 12 6 -3 10 -1 10 6 0 8 4 8 15 -1 13
-11 14 -10 9 5 -5 13 -4 16 4 11 7 -4 12 -1 12 8 0 9 9 16 20 16 11 0 20 5 20
10 0 6 7 10 15 10 8 0 15 4 15 9 0 5 10 7 22 3 17 -4 20 -2 15 11 -4 12 -1 15
14 12 12 -2 28 0 37 5 9 5 25 11 35 14 11 4 15 11 11 18 -5 9 -3 9 9 -1 12 -9
17 -10 17 -2 0 7 5 9 10 6 6 -3 10 -2 10 3 0 6 7 13 16 16 9 4 13 2 8 -5 -4
-7 1 -7 16 1 12 6 28 9 35 6 7 -2 16 -2 19 1 9 9 86 9 86 0 0 -5 4 -6 9 -3 9
6 26 -22 23 -37 -1 -4 1 -6 6 -6 19 3 25 -2 12 -11 -13 -8 -12 -10 3 -10 9 0
17 -5 17 -11 0 -5 -4 -7 -10 -4 -5 3 -2 -9 7 -27 31 -63 33 -67 22 -73 -7 -5
-6 -11 1 -20 10 -13 9 -22 -12 -56 -1 -3 3 -13 10 -22 9 -11 10 -17 2 -22 -8
-5 -8 -11 0 -20 7 -8 8 -20 4 -27 -11 -18 -12 -48 -2 -54 5 -3 4 -12 -3 -20
-6 -8 -9 -17 -5 -21 3 -3 -1 -17 -9 -30 -9 -13 -13 -28 -10 -33 3 -6 0 -10 -7
-10 -10 0 -10 -2 1 -9 11 -7 11 -9 0 -14 -10 -4 -9 -6 4 -6 9 -1 17 -6 17 -11
0 -6 -3 -9 -7 -8 -5 2 -9 -1 -10 -7 -2 -5 2 -11 7 -11 6 -1 15 -2 21 -3 6 0 8
-8 5 -17 -3 -8 -2 -12 4 -9 6 3 11 1 11 -4 1 -6 2 -15 3 -20 0 -5 14 -19 29
-31 21 -17 25 -25 17 -35 -8 -10 -8 -15 1 -21 8 -5 9 -3 4 7 -8 12 -6 12 8 0
20 -16 23 -36 5 -25 -9 5 -9 3 1 -9 7 -9 17 -15 21 -12 5 3 6 -5 2 -17 -3 -12
-1 -19 5 -15 5 3 10 0 11 -8 1 -8 3 -22 4 -30 1 -8 5 -15 10 -15 5 0 6 -4 3
-10 -3 -5 0 -10 7 -10 10 0 9 -3 -2 -10 -12 -8 -12 -10 3 -16 14 -5 15 -9 6
-20 -6 -8 -7 -14 -2 -14 5 0 10 -6 11 -12 2 -22 8 -47 13 -52 2 -2 2 -65 -1
-140 -3 -75 -3 -136 0 -136 3 0 6 -9 6 -20 0 -11 -5 -19 -11 -17 -5 3 -11 -12
-13 -32 -1 -20 -4 -48 -5 -64 -1 -18 -6 -25 -15 -22 -9 3 -10 0 -3 -12 6 -12
5 -26 -4 -44 -8 -15 -12 -29 -9 -32 3 -3 -2 -16 -11 -30 -9 -14 -18 -38 -21
-53 -3 -16 -12 -35 -21 -41 -9 -7 -12 -13 -7 -13 6 0 11 -7 11 -15 0 -8 -4
-12 -9 -9 -13 8 -37 -27 -33 -48 3 -12 -1 -15 -13 -11 -9 3 -14 3 -10 -1 3 -4
-12 -26 -35 -49 -23 -22 -34 -35 -24 -28 12 10 17 10 17 2 0 -6 -12 -16 -26
-21 -14 -6 -22 -15 -19 -20 4 -6 3 -9 -2 -8 -4 2 -10 -1 -12 -7 -5 -14 -44
-40 -55 -37 -5 2 -6 -4 -3 -12 3 -8 -4 -22 -15 -33 -12 -10 -18 -12 -14 -5 12
20 -8 14 -24 -8 -10 -14 -17 -17 -27 -8 -10 8 -13 6 -13 -6 0 -14 -11 -21 -32
-17 -5 0 -8 -4 -8 -10 0 -8 -6 -7 -17 2 -15 12 -16 12 -11 -3 7 -18 -9 -28
-44 -28 -14 0 -18 -5 -14 -16 3 -8 2 -12 -4 -9 -6 3 -10 0 -10 -7 0 -8 -3 -9
-8 -3 -12 16 -51 14 -44 -3 3 -10 0 -13 -9 -10 -8 3 -21 2 -30 -3 -9 -5 -31
-11 -50 -14 -18 -3 -37 -11 -41 -18 -6 -9 -8 -8 -8 3 0 10 -3 11 -8 4 -8 -13
-52 -25 -52 -15 0 4 -7 8 -15 8 -8 0 -15 -4 -15 -9 0 -5 -9 -4 -19 2 -13 6
-22 7 -26 0 -3 -5 -12 -7 -20 -3 -23 8 -62 -5 -62 -22 0 -11 4 -12 13 -4 10 8
12 6 9 -10 -3 -15 0 -18 13 -14 9 3 13 2 9 -2 -4 -5 3 -15 15 -22 13 -7 17
-12 9 -13 -8 0 -3 -8 12 -20 14 -12 24 -27 21 -34 -3 -8 -1 -17 5 -21 6 -3 11
-17 11 -30 0 -30 10 -56 19 -51 4 3 6 -8 5 -25 -1 -16 1 -29 6 -29 4 0 4 -18
0 -40 -4 -22 -3 -43 1 -46 5 -3 5 -13 0 -22 -6 -11 -6 -24 0 -34 6 -11 5 -19
-1 -23 -8 -5 -8 -11 0 -20 7 -9 8 -20 3 -32 -11 -21 -11 -33 0 -50 4 -6 3 -15
-3 -18 -8 -5 -7 -11 1 -21 8 -10 8 -18 1 -26 -13 -16 -13 -28 -1 -50 6 -11 5
-19 -1 -23 -8 -5 -8 -11 0 -20 10 -12 3 -41 -14 -61 -1 0 5 -8 12 -17 9 -11
10 -17 2 -22 -8 -5 -8 -11 1 -21 9 -11 9 -17 0 -28 -8 -10 -9 -16 -1 -21 6 -4
7 -13 2 -23 -8 -16 -8 -34 -2 -47 6 -12 6 -32 -1 -52 -7 -18 -5 -21 9 -16 15
6 15 5 3 -10 -12 -15 -12 -17 4 -11 11 5 22 1 29 -8 13 -17 54 -30 61 -19 2 4
18 7 35 6 25 -1 30 1 25 14 -5 12 -3 13 6 4 7 -7 18 -8 28 -3 9 5 24 11 34 14
11 4 15 11 11 18 -5 9 -3 9 9 -1 11 -9 17 -10 17 -2 0 6 9 11 20 11 11 0 20 4
20 9 0 5 10 7 22 3 16 -4 20 -2 16 9 -4 10 1 15 15 16 11 1 23 6 26 10 3 4 13
8 21 8 8 0 14 6 12 14 -2 11 0 12 11 2 12 -9 16 -8 21 4 3 9 10 14 16 10 5 -3
18 3 28 13 10 10 23 17 29 15 6 -2 15 1 19 8 5 8 3 9 -6 4 -9 -6 -11 -4 -5 4
5 10 10 10 18 2 9 -9 21 -2 46 26 18 21 31 33 27 26 -3 -6 -2 -15 4 -18 6 -4
10 -3 9 2 -4 23 2 32 18 26 12 -5 14 -3 8 7 -6 10 -3 12 14 7 19 -5 20 -3 9
11 -10 12 -10 14 0 8 7 -4 12 -2 12 4 0 6 5 8 10 5 6 -3 10 1 10 10 0 13 4 14
23 4 12 -6 19 -8 15 -4 -5 5 1 15 12 22 11 8 18 19 15 24 -4 5 1 9 9 9 9 0 16
5 16 11 0 8 4 8 14 -1 13 -10 14 -8 10 13 -2 16 1 27 10 30 11 4 13 1 9 -11
-4 -13 -3 -14 6 -6 7 6 13 20 14 31 0 11 7 20 14 20 10 0 10 -4 3 -11 -5 -5
-10 -14 -10 -20 0 -5 6 -1 14 9 8 11 12 24 9 30 -2 7 4 18 14 26 16 12 17 12
6 -2 -10 -13 -10 -16 2 -16 8 0 13 2 10 5 -2 3 1 14 7 26 7 11 11 25 10 29 -1
5 2 6 8 2 8 -5 7 -12 -2 -23 -10 -13 -7 -13 9 1 12 11 19 24 17 31 -3 7 3 19
13 27 16 12 17 12 6 -2 -10 -13 -10 -16 2 -16 7 0 14 3 13 6 -2 21 4 31 14 25
8 -5 9 -2 5 9 -6 16 8 23 36 18 4 -1 3 8 -3 20 -11 19 -10 20 12 8 21 -11 22
-11 9 4 -12 15 -11 17 4 17 10 0 15 3 12 7 -4 3 5 15 20 26 16 10 21 17 12 14
-9 -3 -16 1 -16 8 0 7 7 12 16 11 9 -1 16 5 17 12 1 6 2 17 3 22 0 6 10 10 21
10 13 0 18 5 14 15 -4 10 0 15 11 15 15 0 15 2 5 16 -8 8 -9 14 -4 13 19 -3
34 1 34 12 0 5 -5 7 -12 3 -7 -5 -8 -3 -4 5 5 7 14 10 22 7 12 -5 12 -2 3 15
-7 14 -7 19 0 15 12 -8 33 28 23 39 -4 5 2 5 12 1 16 -6 17 -4 6 9 -11 13 -11
16 1 13 8 -2 15 7 17 20 2 12 7 22 12 22 5 0 10 10 12 23 2 12 9 21 17 19 12
-3 12 0 1 12 -8 11 -9 16 -1 16 6 0 11 7 11 15 0 10 6 12 18 8 15 -6 15 -5 3
10 -9 11 -10 17 -2 17 6 0 10 3 10 8 -4 21 3 34 14 29 10 -4 13 2 9 18 -2 12
1 26 7 29 5 4 7 14 4 23 -4 11 -3 14 5 9 8 -5 10 -2 6 8 -4 11 0 16 12 17 11
0 14 3 7 5 -7 3 -9 12 -6 20 3 7 8 12 13 9 4 -2 6 7 4 20 -1 14 2 25 7 25 5 0
9 5 9 11 0 5 -6 7 -13 4 -6 -4 -5 -1 4 7 9 7 14 19 11 27 -3 8 0 11 7 7 7 -5
10 3 7 24 -2 20 0 30 8 27 7 -3 12 10 14 32 1 20 4 48 5 64 1 20 6 26 17 22
12 -5 12 -3 3 6 -7 7 -8 18 -4 28 19 38 29 81 19 81 -6 0 -3 11 5 24 12 17 13
26 4 35 -8 8 -8 11 2 11 8 0 11 6 7 15 -3 8 -1 15 5 15 6 0 6 7 -1 20 -6 11
-7 20 -3 20 4 0 6 61 3 136 -3 75 -2 138 3 141 4 2 2 13 -3 24 -6 10 -7 19 -2
19 12 0 -7 133 -20 141 -7 4 -7 9 1 13 8 5 8 13 1 27 -8 13 -7 19 0 19 6 0 5
11 -4 28 -8 16 -13 40 -12 55 2 15 -1 27 -7 27 -5 0 -7 9 -4 20 3 11 1 20 -5
20 -5 0 -6 5 -3 10 3 6 1 10 -6 10 -7 0 -9 10 -7 25 3 13 1 22 -3 19 -5 -3
-10 4 -10 15 -2 30 -3 34 -13 50 -6 10 -5 12 2 7 8 -4 10 -2 6 8 -3 8 -12 17
-20 20 -7 3 -11 12 -8 20 3 8 -2 26 -11 40 -10 14 -13 26 -9 26 5 0 2 5 -6 10
-11 7 -12 10 -2 10 11 0 11 3 0 15 -35 38 -38 43 -26 47 7 3 2 13 -12 26 -15
13 -19 22 -10 22 10 0 9 5 -4 19 -9 10 -16 24 -14 32 2 7 -4 13 -12 14 -8 1
-14 6 -12 13 1 7 3 17 5 24 1 7 -5 12 -13 13 -8 0 -15 9 -15 20 0 11 -9 25
-20 30 -11 6 -20 15 -20 20 -2 24 -17 55 -26 50 -5 -4 -9 1 -9 9 0 9 -6 16
-12 16 -9 0 -8 4 2 10 10 6 11 10 3 10 -7 0 -13 6 -13 14 0 8 -4 17 -9 20 -5
4 -7 -4 -5 -16 4 -21 4 -21 -4 -3 -5 11 -7 26 -4 34 4 10 1 13 -10 8 -12 -4
-14 -1 -11 14 3 11 0 19 -6 19 -7 0 -9 -6 -6 -12 4 -7 0 -5 -8 4 -8 10 -16 16
-19 13 -2 -3 -5 2 -5 10 0 11 4 12 11 5 18 -18 27 -11 9 8 -10 11 -22 17 -27
14 -5 -3 -7 2 -3 11 3 9 3 16 -1 16 -22 -4 -31 3 -25 19 3 9 2 14 -2 9 -5 -4
-14 5 -21 20 l-13 28 4 -29 c2 -16 1 -25 -3 -21 -4 3 -7 10 -7 13 -2 22 -18
51 -25 47 -5 -3 -11 -1 -15 5 -4 6 -10 8 -15 5 -4 -3 -6 4 -3 15 4 16 2 19
-12 13 -12 -4 -16 -3 -11 5 4 7 -4 14 -21 18 -25 7 -25 8 -8 15 20 7 20 8 0 9
-11 2 -23 2 -26 2 -4 -1 -4 8 -1 20 3 14 1 19 -6 14 -7 -4 -12 -2 -12 3 0 6
-8 11 -17 12 -15 0 -15 2 2 9 17 7 16 9 -10 9 -24 1 -27 3 -15 12 12 8 10 9
-10 7 -20 -2 -25 1 -24 20 1 12 -3 22 -8 22 -5 0 -6 5 -2 12 4 7 3 8 -5 4 -6
-4 -8 -12 -5 -18 5 -7 2 -8 -5 -4 -7 5 -10 14 -7 22 7 17 -10 28 -20 13 -5 -8
-3 -9 6 -4 9 5 11 4 6 -4 -11 -17 -25 -4 -21 19 2 12 0 18 -5 15 -11 -7 -41 8
-43 21 -1 5 -9 10 -17 11 -8 1 -16 7 -18 13 -2 5 -8 8 -13 4 -5 -3 -9 -1 -9 4
0 10 -38 25 -54 23 -5 -1 -4 5 3 13 10 12 9 14 -8 9 -12 -3 -21 -1 -21 5 0 5
-14 15 -31 21 -17 6 -28 15 -25 20 3 5 -1 14 -9 21 -9 8 -15 8 -15 2 0 -6 5
-12 12 -14 7 -3 5 -7 -6 -11 -10 -4 -15 -3 -11 3 3 6 2 10 -2 10 -5 0 -18 7
-29 16 -10 8 -13 12 -5 8 9 -5 12 -3 7 5 -4 6 -11 9 -16 6 -5 -3 -14 3 -20 12
-11 17 -11 17 -6 1 5 -15 3 -16 -14 -5 -11 6 -20 15 -20 19 0 5 -6 8 -14 8 -8
0 -17 7 -20 16 -5 13 -9 14 -21 4 -11 -9 -15 -9 -15 -1 0 7 -4 10 -9 7 -5 -3
-11 1 -15 9 -3 9 -12 12 -21 9 -9 -4 -22 1 -31 12 -9 11 -13 13 -9 7 3 -7 1
-13 -4 -13 -6 0 -11 8 -12 18 0 11 -2 12 -6 4 -4 -10 -10 -9 -26 5 -20 17 -20
17 -14 -2 7 -18 6 -19 -6 -3 -8 10 -16 15 -19 13 -3 -3 -11 1 -18 10 -15 18
-34 20 -24 3 6 -10 5 -10 -8 -1 -8 7 -19 9 -23 5 -5 -4 -5 -2 -2 4 4 7 0 15
-9 18 -10 4 -13 2 -8 -7 6 -9 5 -9 -8 0 -8 7 -18 10 -21 6 -4 -3 -7 -2 -7 4 0
6 -9 9 -22 5 -18 -4 -20 -2 -15 14 7 18 7 18 -8 0 -9 -12 -15 -15 -15 -7 0 8
-8 11 -20 8 -11 -3 -20 -1 -20 5 0 5 -4 6 -10 3 -5 -3 -10 0 -10 7 0 9 -3 9
-10 -2 -7 -11 -10 -11 -10 -2 0 7 -4 11 -8 8 -4 -2 -14 -1 -22 4 -8 5 -19 5
-26 -1 -8 -6 -14 -5 -18 6 -3 8 -10 15 -16 15 -6 0 -8 -6 -4 -12 5 -9 2 -9 -9
1 -9 7 -17 10 -17 7 0 -4 -9 -2 -19 4 -14 7 -22 7 -26 0 -5 -8 -11 -8 -20 0
-9 8 -15 8 -20 0 -5 -8 -34 0 -51 14 0 1 -8 -5 -17 -13 -13 -10 -20 -11 -31
-2 -10 8 -16 9 -21 1 -3 -6 -12 -7 -18 -3 -17 11 -29 11 -50 0 -12 -5 -23 -4
-32 3 -9 8 -15 8 -20 0 -4 -6 -12 -7 -23 -1 -11 6 -24 6 -34 0 -10 -5 -19 -5
-22 0 -3 4 -23 5 -45 1 -22 -4 -45 -4 -52 1 -7 4 -22 5 -33 3 -12 -3 -28 -7
-36 -8 -8 -2 -21 1 -27 7 -9 6 -13 6 -13 -1z m1530 -1502 c0 -5 -5 -10 -11
-10 -5 0 -7 5 -4 10 3 6 8 10 11 10 2 0 4 -4 4 -10z m-34 -1132 c4 -7 4 -10
-1 -6 -4 4 -14 0 -22 -10 -13 -15 -13 -15 -3 6 12 25 16 27 26 10z m-2249
-884 c-3 -3 -12 -4 -19 -1 -8 3 -5 6 6 6 11 1 17 -2 13 -5z m2363 -204 c0 -5
-5 -10 -11 -10 -5 0 -7 5 -4 10 3 6 8 10 11 10 2 0 4 -4 4 -10z m-190 -134 c0
-3 -4 -8 -10 -11 -5 -3 -10 -1 -10 4 0 6 5 11 10 11 6 0 10 -2 10 -4z"/>
<path d="M4166 4343 c-6 -14 -5 -15 5 -6 7 7 10 15 7 18 -3 3 -9 -2 -12 -12z"/>
<path d="M1226 4168 c3 -5 10 -6 15 -3 13 9 11 12 -6 12 -8 0 -12 -4 -9 -9z"/>
<path d="M1701 2134 c0 -11 3 -14 6 -6 3 7 2 16 -1 19 -3 4 -6 -2 -5 -13z"/>
<path d="M3790 2049 c0 -5 5 -7 10 -4 6 3 10 8 10 11 0 2 -4 4 -10 4 -5 0 -10
-5 -10 -11z"/>
<path d="M1830 2031 c0 -6 4 -13 10 -16 6 -3 7 1 4 9 -7 18 -14 21 -14 7z"/>
<path d="M1306 1847 c3 -10 9 -15 12 -12 3 3 0 11 -7 18 -10 9 -11 8 -5 -6z"/>
<path d="M1610 1790 c-9 -6 -10 -10 -3 -10 6 0 15 5 18 10 8 12 4 12 -15 0z"/>
<path d="M3253 1725 c0 -8 4 -12 9 -9 5 3 6 10 3 15 -9 13 -12 11 -12 -6z"/>
<path d="M1731 1624 c0 -11 3 -14 6 -6 3 7 2 16 -1 19 -3 4 -6 -2 -5 -13z"/>
<path d="M4485 1520 c-3 -5 -1 -10 4 -10 6 0 11 5 11 10 0 6 -2 10 -4 10 -3 0
-8 -4 -11 -10z"/>
<path d="M1345 1250 c-3 -6 1 -7 9 -4 18 7 21 14 7 14 -6 0 -13 -4 -16 -10z"/>
<path d="M1480 1116 c0 -2 7 -7 16 -10 8 -3 12 -2 9 4 -6 10 -25 14 -25 6z"/>
</g>
</svg>
